#!OML:ASF F:\VICON\USERDATA\INSTALL\rory3\rory3.ASF
:FULLY-SPECIFIED
:DEGREES
198
root -7.75432 17.707 3.12704 -8.88826 -55.675 8.08537
lowerback 11.7298 1.73616 1.27806
upperback 0.326735 2.49547 0.523109
thorax -6.207 1.18555 -0.590047
lowerneck -24.1367 4.22751 -6.70485
upperneck 29.6916 7.50173 3.69472
head 13.6777 2.94674 3.95946
rclavicle 5.47155e-014 1.43125e-014
rhumerus -35.8776 -16.8877 -68.3463
rradius 29.8921
rwrist 4.64201
rhand -17.5075 8.1475
rfingers 7.12502
rthumb 8.74565 -21.6513
lclavicle 5.47155e-014 1.43125e-014
lhumerus -33.5995 9.56321 84.0047
lradius 38.6069
lwrist 0.235797
lhand -21.9123 23.095
lfingers 7.12502
lthumb 4.49347 53.0273
rfemur -1.00445 -0.0287948 5.59638
rtibia 30.2864
rfoot -12.761 -19.3709
rtoes -6.80183
lfemur -0.298122 -0.843248 -9.72031
ltibia 10.5278
lfoot 5.20455 8.46988
ltoes -26.5649
199
root -7.69495 17.7014 3.25167 -9.04189 -55.0594 8.34291
lowerback 11.7063 1.70381 1.1506
upperback 0.263406 2.43525 0.494159
thorax -6.26588 1.15912 -0.539264
lowerneck -24.037 4.28033 -6.67464
upperneck 29.6538 7.5521 3.71285
head 13.6371 2.9787 3.96404
rclavicle 1.88001e-013 3.97569e-015
rhumerus -36.0658 -16.4816 -68.2411
rradius 29.9704
rwrist 4.13551
rhand -17.3485 8.1579
rfingers 7.12502
rthumb 8.89907 -21.6344
lclavicle 1.88001e-013 3.97569e-015
lhumerus -33.552 9.11966 84.3204
lradius 38.5669
lwrist 0.587705
lhand -22.3836 22.2691
lfingers 7.12502
lthumb 4.03839 52.2106
rfemur -0.990054 -0.0180931 4.93256
rtibia 30.678
rfoot -12.6159 -19.6925
rtoes -4.81412
lfemur -0.462921 0.0360809 -10.4818
ltibia 10.6186
lfoot 4.3127 7.40591
ltoes -27.1438
200
root -7.63542 17.6953 3.37633 -9.40873 -54.502 8.77037
lowerback 11.7478 1.71123 0.954026
upperback 0.237591 2.41608 0.430647
thorax -6.32208 1.15434 -0.494178
lowerneck -23.9665 4.29916 -6.59204
upperneck 29.632 7.56685 3.63708
head 13.6204 2.98551 3.91936
rclavicle 2.73329e-014 1.90833e-014
rhumerus -36.1625 -16.8792 -67.8886
rradius 29.8301
rwrist 4.53859
rhand -17.311 8.17107
rfingers 7.12502
rthumb 8.93526 -21.6197
lclavicle 2.73329e-014 1.90833e-014
lhumerus -33.5321 9.12683 84.4593
lradius 38.5598
lwrist 0.205277
lhand -22.3255 22.2678
lfingers 7.12502
lthumb 4.09442 52.2082
rfemur -0.926354 0.00676372 4.15715
rtibia 31.0263
rfoot -12.2458 -20.0649
rtoes -3.54587
lfemur -0.65588 0.780319 -11.3887
ltibia 11.0461
lfoot 3.44448 6.86855
ltoes -25.5957
201
root -7.57359 17.687 3.50108 -9.64069 -53.8671 8.98202
lowerback 11.7974 1.65503 0.907732
upperback 0.277143 2.33175 0.381038
thorax -6.30883 1.11374 -0.506845
lowerneck -24.1421 4.34736 -6.44487
upperneck 29.7257 7.63477 3.5274
head 13.7057 3.00976 3.87638
rclavicle 2.34566e-014 5.56597e-015
rhumerus -36.1384 -17.5847 -67.5145
rradius 29.6387
rwrist 5.30893
rhand -17.2377 8.16873
rfingers 7.12502
rthumb 9.00598 -21.619
lclavicle 2.34566e-014 5.56597e-015
lhumerus -33.4579 9.3219 84.5379
lradius 38.6015
lwrist -0.236126
lhand -22.1951 22.4573
lfingers 7.12502
lthumb 4.22035 52.3952
rfemur -0.822239 -0.123117 3.50499
rtibia 31.3902
rfoot -11.5145 -20.5999
rtoes -3.63461
lfemur -0.907868 1.30418 -12.1906
ltibia 11.5852
lfoot 2.52723 6.81655
ltoes -22.0052
202
root -7.51 17.6949 3.62395 -9.86559 -53.0975 9.22896
lowerback 11.8436 1.54276 0.81485
upperback 0.31639 2.16477 0.303549
thorax -6.29559 1.03368 -0.508406
lowerneck -24.3221 4.40471 -6.3505
upperneck 29.8003 7.72118 3.46437
head 13.7775 3.04396 3.86268
rclavicle 1.71949e-013 1.43125e-014
rhumerus -36.1086 -18.0588 -67.3148
rradius 29.5741
rwrist 5.6715
rhand -17.0342 8.1741
rfingers 7.12502
rthumb 9.20236 -21.6051
lclavicle 1.71949e-013 1.43125e-014
lhumerus -33.2666 9.3703 84.5963
lradius 38.5047
lwrist -0.469552
lhand -21.9938 22.3221
lfingers 7.12502
lthumb 4.41472 52.2561
rfemur -0.733315 -0.164961 2.85993
rtibia 31.8311
rfoot -10.765 -21.2082
rtoes -2.29388
lfemur -1.22909 2.00873 -13.1129
ltibia 11.9448
lfoot 1.87036 6.53583
ltoes -19.6929
203
root -7.44329 17.6989 3.74471 -10.1371 -52.2303 9.51826
lowerback 11.9396 1.41438 0.699157
upperback 0.331741 1.97501 0.240713
thorax -6.3371 0.942886 -0.479532
lowerneck -24.3171 4.44449 -6.43553
upperneck 29.779 7.7959 3.52061
head 13.7547 3.07749 3.91009
rclavicle 3.98066e-014 -7.95139e-015
rhumerus -36.179 -18.4916 -67.0376
rradius 29.58
rwrist 5.89553
rhand -16.8552 8.2919
rfingers 7.12502
rthumb 9.37508 -21.4796
lclavicle 3.98066e-014 -7.95139e-015
lhumerus -33.1235 9.1929 84.7261
lradius 38.2966
lwrist -0.605029
lhand -21.7074 21.917
lfingers 7.12502
lthumb 4.69135 51.8451
rfemur -0.60114 -0.183151 2.17157
rtibia 32.2508
rfoot -9.9117 -21.7155
rtoes -0.0079531
lfemur -1.52506 2.46333 -14.0964
ltibia 12.3618
lfoot 1.19419 6.28441
ltoes -17.7949
204
root -7.37549 17.6905 3.8674 -10.5036 -51.3189 9.88428
lowerback 12.0239 1.29527 0.540708
upperback 0.362868 1.79166 0.187051
thorax -6.35651 0.856839 -0.416977
lowerneck -24.2928 4.49454 -6.49227
upperneck 29.7887 7.88987 3.52792
head 13.7443 3.11368 3.93756
rclavicle 1.99282e-014 -1.19271e-014
rhumerus -36.2725 -18.9864 -66.7152
rradius 29.6185
rwrist 5.96447
rhand -17.0114 8.10741
rfingers 7.12502
rthumb 9.22438 -21.6708
lclavicle 1.99282e-014 -1.19271e-014
lhumerus -33.0145 9.0176 84.9387
lradius 38.0775
lwrist -0.714517
lhand -21.5237 21.9174
lfingers 7.12502
lthumb 4.86871 51.8415
rfemur -0.409403 -0.294958 1.40048
rtibia 32.6331
rfoot -8.97567 -22.2873
rtoes 0.881689
lfemur -1.80379 2.32353 -15.1266
ltibia 12.8645
lfoot 0.574541 6.30771
ltoes -16.349
